<svg xmlns="http://www.w3.org/2000/svg" viewBox="0 0 512 512" width="512" height="512">
  <rect width="512" height="512" rx="84" fill="url(#bgGrad)"/>
  <g transform="translate(106 106) scale(6.25)">
    <path d="M8 32 C12 28, 18 20, 24 16 C26 14.5, 28 14, 30 15 C28 17, 24 22, 22 28 C20 32, 16 35, 8 32z" fill="#fff"/>
    <path d="M24 16 C28 10, 34 6, 42 4 C40 8, 36 12, 30 15z" fill="#fff" opacity="0.9"/>
    <path d="M22 28 C28 24, 36 22, 44 22 C40 26, 34 28, 28 28 C26 28, 24 28, 22 28z" fill="#fff" opacity="0.7"/>
    <path d="M8 32 C6 36, 4 40, 2 44 C6 42, 10 38, 14 34 C12 34, 10 33, 8 32z" fill="#fff" opacity="0.55"/>
    <circle cx="28" cy="15.5" r="1" fill="#6366f1"/>
  </g>
  <defs>
    <linearGradient id="bgGrad" x1="0%" y1="0%" x2="100%" y2="100%">
      <stop offset="0%" stop-color="#6366f1"/>
      <stop offset="50%" stop-color="#8b5cf6"/>
      <stop offset="100%" stop-color="#a855f7"/>
    </linearGradient>
  </defs>
</svg>
